.
..............................Site Info...........................

 -   http://www.scenetime.com  *_*    

Scenetime .Always on time . friendly online private torrent community ..

     We care to share . Join us on  http://www.scenetime.com 

    Be the first to get new release at  http://www.scenetime.com

        Seed back for speed


...................................NFO:.................................................[pre][b]
Notes: fixed the line audio that was playing mostly in the left channel and muxed to our encode
Audio: UNIQUE/jiinx thanks

Argo 2012 TS XviD READNFO-SHOWTiME

Format                                   : AVI
Format/Info                              : Audio Video Interleave
File size                                : 1.66 GiB
Duration                                 : 1h 51mn
Overall bit rate                         : 2 134 Kbps


Video
ID                                       : 0
Format                                   : MPEG-4 Visual
Format profile                           : Advanced Simple@L5
Format settings, BVOP                    : 2
Format settings, QPel                    : No
Format settings, GMC                     : No warppoints
Format settings, Matrix                  : Default (H.263)
Muxing mode                              : Packed bitstream
Codec ID                                 : XVID
Codec ID/Hint                            : XviD
Duration                                 : 1h 51mn
Bit rate                                 : 1 996 Kbps
Width                                    : 720 pixels
Height                                   : 344 pixels
Display aspect ratio                     : 2.093
Frame rate                               : 23.976 fps
Color space                              : YUV
Chroma subsampling                       : 4:2:0
Bit depth                                : 8 bits
Scan type                                : Progressive
Compression mode                         : Lossy
Bits/(Pixel*Frame)                       : 0.336
Stream size                              : 1.55 GiB (94%)
Writing library                          : XviD 1.2.1 (UTC 2008-12-04)

Audio
ID                                       : 1
Format                                   : MPEG Audio
Format version                           : Version 1
Format profile                           : Layer 3
Mode                                     : Joint stereo
Mode extension                           : MS Stereo
Codec ID                                 : 55
Codec ID/Hint                            : MP3
Duration                                 : 1h 51mn
Bit rate mode                            : Constant
Bit rate                                 : 128 Kbps
Channel(s)                               : 2 channels
Sampling rate                            : 44.1 KHz
Compression mode                         : Lossy
Stream size                              : 102 MiB (6%)
Alignment                                : Split accross interleaves
Interleave, duration                     : 42 ms (1.00 video frame)
Interleave, preload duration             : 500 ms
Writing library                          : LAME3.99r[/b]


[center][img]http://lookpic.com/O/i2/928/jWh1HC4.png[/img][/center]
[center][img]http://lookpic.com/O/i2/849/4YUbkiBz.png[/img][/center]
[center][img]http://lookpic.com/O/i2/976/6ir0Wpe8.png[/img][/center]
[center][img]http://lookpic.com/O/i2/563/HrxQGZnn.png[/img][/center]
[center][img]http://lookpic.com/O/i2/667/Swpe08OB.png[/img][/center]

 
http://www.imdb.com/title/tt1024648/


                                                                                           [b] Greetz

          -=ViSiON=-=SceneLovers=-=PRESTiGE=-=SANTi=-=3LT0N=-=THC=-=T0XiC=-=LKRG=-=ADTRG=-=FeelFree=-
                 -=FLAWL3SS=-=WBZ=-=BHRG=-=26K=-=NOVA=-=MAGNET=-=4PlayHD=-=LEGION=-=DiVERSiTY=-
                     -=HOPE=-=Hive-CM8=-=DTRG=-=ADTRG=-=BIDA=-=REFILL=-=INSPiRAL=-=AXED=-=HOPE=-
                                 -=ILLUMANTI=-=UNiQUE=-=RESiSTANCE=-=Rx=-=CrEwSaDe=-=ELEKTRI4KA=-
                                                                                  -=INFERNO=-

                                                       AND TO ALL OTHER P2P GROUPS PAST AND PRESENT[/b][/pre]